<?xml version="1.0" encoding="UTF-8"?>
<svg id="this_is_too_freaking_complicated_im_going_to_cry_wtf_copy" xmlns="http://www.w3.org/2000/svg" xmlns:xlink="http://www.w3.org/1999/xlink" viewBox="0 0 213.33 218.2">
  <defs>
    <style>
      .cls-1 {
        fill: red;
      }

      .cls-2 {
        fill: url(#radial-gradient);
      }

      .cls-3 {
        stroke: #fff;
        stroke-width: 4px;
      }

      .cls-3, .cls-4 {
        fill: none;
        stroke-miterlimit: 10;
      }

      .cls-4 {
        stroke: #b2489b;
        stroke-width: 9px;
      }
    </style>
    <radialGradient id="radial-gradient" cx="106.67" cy="108.41" fx="88.57" fy="108.41" r="153.91" gradientUnits="userSpaceOnUse">
      <stop offset=".01" stop-color="#dc4598"/>
      <stop offset=".84" stop-color="#e6233a"/>
    </radialGradient>
  </defs>
  <g>
    <path class="cls-1" d="M207.82,41.21s-5.71-23.74-32.51-31.68c0,0-36.07-15.45-65.3,10.47l-3.02,3.64s-.79,1.17-1.55.16l-1.86-1.7s-10.21-11-36.31-17.02c0,0-36.81-6.28-55.47,22.78,0,0-11.6,16.37-5.55,50.01,0,0,8.57,34.04,34.29,64.81,0,0,26.29,32.03,47.6,52.85l19.48,16.8s43.43-35.49,65.54-68.08c0,0,42.75-53.45,34.66-103.04ZM172.24,122.2c-13.98,22.98-50.17,58.6-50.17,58.6l-31.79,3.06c-16.18-15.22-36-45.19-36-45.19-19.53-22.5-36.38-44.25-36.38-44.25-4.6-24.61-3.06-56.09-3.06-56.09C29.01,17.07,58.12,8.07,58.12,8.07c19.82,4.4,24.85,4.97,24.85,4.97l18.04,9.96c.57.74,5.97.63,5.97.63l10.12-5.53c22.2-18.96,42.51-10.03,42.51-10.03,20.35,5.81,39.83,32.55,39.83,32.55,5.86,35.55-27.19,81.57-27.19,81.57Z"/>
    <path class="cls-4" d="M207.82,41.21s-5.71-23.74-32.51-31.68c0,0-36.07-15.45-65.3,10.47l-3.02,3.64s-.79,1.17-1.55.16l-1.86-1.7s-10.21-11-36.31-17.02c0,0-36.81-6.28-55.47,22.78,0,0-11.6,16.37-5.55,50.01,0,0,8.57,34.04,34.29,64.81,0,0,26.29,32.03,47.6,52.85l19.48,16.8s43.43-35.49,65.54-68.08c0,0,42.75-53.45,34.66-103.04ZM172.24,122.2c-13.98,22.98-50.17,58.6-50.17,58.6l-31.79,3.06c-16.18-15.22-36-45.19-36-45.19-19.53-22.5-36.38-44.25-36.38-44.25-4.6-24.61-3.06-56.09-3.06-56.09C29.01,17.07,58.12,8.07,58.12,8.07c19.82,4.4,24.85,4.97,24.85,4.97l18.04,9.96c.57.74,5.97.63,5.97.63l10.12-5.53c22.2-18.96,42.51-10.03,42.51-10.03,20.35,5.81,39.83,32.55,39.83,32.55,5.86,35.55-27.19,81.57-27.19,81.57Z"/>
    <path class="cls-3" d="M207.82,41.21s-5.71-23.74-32.51-31.68c0,0-36.07-15.45-65.3,10.47l-3.02,3.64s-.79,1.17-1.55.16l-1.86-1.7s-10.21-11-36.31-17.02c0,0-36.81-6.28-55.47,22.78,0,0-11.6,16.37-5.55,50.01,0,0,8.57,34.04,34.29,64.81,0,0,26.29,32.03,47.6,52.85l19.48,16.8s43.43-35.49,65.54-68.08c0,0,42.75-53.45,34.66-103.04ZM172.24,122.2c-13.98,22.98-50.17,58.6-50.17,58.6l-31.79,3.06c-16.18-15.22-36-45.19-36-45.19-19.53-22.5-36.38-44.25-36.38-44.25-4.6-24.61-3.06-56.09-3.06-56.09C29.01,17.07,58.12,8.07,58.12,8.07c19.82,4.4,24.85,4.97,24.85,4.97l18.04,9.96c.57.74,5.97.63,5.97.63l10.12-5.53c22.2-18.96,42.51-10.03,42.51-10.03,20.35,5.81,39.83,32.55,39.83,32.55,5.86,35.55-27.19,81.57-27.19,81.57Z"/>
  </g>
  <path class="cls-2" d="M207.82,41.21s-5.71-23.74-32.51-31.68c0,0-36.07-15.45-65.3,10.47l-4.3,3.86-2.13-1.76s-10.21-11-36.31-17.02c0,0-36.81-6.28-55.47,22.78,0,0-11.6,16.37-5.55,50.01,0,0,8.57,34.04,34.29,64.81,0,0,26.29,32.03,47.6,52.85l19.48,16.8s43.43-35.49,65.54-68.08c0,0,42.75-53.45,34.66-103.04ZM156.9,120.96c-13.98,22.98-49.77,49.79-49.77,49.79l-14.8-12.29c-16.18-15.22-36.15-38.65-36.15-38.65-19.53-22.5-26.04-47.39-26.04-47.39-4.6-24.61,4.21-36.57,4.21-36.57,14.17-21.26,42.13-16.66,42.13-16.66,19.82,4.4,27.57,12.45,27.57,12.45l1.41,1.24c.57.74,1.18-.12,1.18-.12l2.29-2.66c22.2-18.96,49.78-9.77,49.78-9.77,20.35,5.81,24.51,25.28,24.51,25.28,5.86,35.55-26.32,75.35-26.32,75.35Z"/>
</svg>